<?xml version="1.0" encoding="UTF-8"?>
<svg id="Logos" xmlns="http://www.w3.org/2000/svg" viewBox="0 0 150 150">
  <defs>
    <style>
      .cls-1 {
        fill: #fff;
      }

      .cls-1, .cls-2, .cls-3 {
        stroke: #c8102e;
        stroke-miterlimit: 10;
      }

      .cls-1, .cls-3 {
        stroke-width: 2px;
      }

      .cls-2 {
        fill: none;
        stroke-width: 1.25px;
      }

      .cls-3, .cls-4 {
        fill: #c8102e;
      }

      .cls-5 {
        fill: #50595e;
      }

      .cls-6 {
        fill: #20282f;
      }
    </style>
  </defs>
  <g id="Certification_Pressed_Med-Large_Text" data-name="Certification / Pressed / Med-Large Text">
    <path class="cls-3" d="M75,11.75C38.17,11.75,8.32,41.61,8.32,78.43c0,18.37,7.43,35,19.45,47.06,1.71-1.56,3.5-3.03,5.36-4.42-11.05-10.84-17.91-25.94-17.91-42.64,0-33.01,26.76-59.78,59.78-59.78s59.78,26.76,59.78,59.78c0,16.71-6.86,31.8-17.91,42.64,1.86,1.39,3.65,2.86,5.36,4.42,12.02-12.06,19.45-28.69,19.45-47.06,0-36.83-29.85-66.68-66.68-66.68Z"/>
    <circle class="cls-1" cx="75" cy="78.58" r="59.67"/>
    <g>
      <path class="cls-5" d="M48.97,119.83v-7.27h2.73c.56,0,1.03.11,1.41.31.38.21.67.5.86.86s.29.78.29,1.24-.1.88-.29,1.24c-.2.36-.49.65-.87.85s-.86.31-1.42.31h-1.81v-1.08h1.63c.33,0,.59-.06.8-.17s.36-.27.46-.47c.1-.2.15-.43.15-.69s-.05-.49-.15-.68c-.1-.2-.25-.35-.46-.46-.21-.11-.48-.17-.81-.17h-1.21v6.17h-1.32Z"/>
      <path class="cls-5" d="M56.63,112.55v7.27h-1.29v-7.27h1.29Z"/>
      <path class="cls-5" d="M61.43,117.53v-3.16h1.29v5.46h-1.25v-.97h-.06c-.12.3-.33.55-.61.75-.28.2-.63.29-1.04.29-.36,0-.67-.08-.95-.24-.27-.16-.49-.39-.64-.7s-.23-.68-.23-1.11v-3.47h1.29v3.28c0,.34.09.62.28.82s.44.31.75.31c.19,0,.37-.05.55-.14s.32-.23.44-.41.17-.41.17-.69Z"/>
      <path class="cls-5" d="M68.34,115.81l-1.17.13c-.03-.12-.09-.23-.17-.33-.08-.1-.19-.19-.33-.25-.14-.06-.3-.1-.5-.1-.27,0-.49.06-.67.17-.18.12-.27.27-.27.45,0,.16.06.29.18.39s.32.18.6.25l.93.2c.52.11.9.29,1.15.53.25.24.38.56.38.95,0,.34-.1.64-.3.91-.2.26-.47.47-.82.61-.35.15-.75.22-1.21.22-.67,0-1.21-.14-1.61-.42-.41-.28-.65-.67-.73-1.17l1.25-.12c.06.25.18.43.36.56.18.12.42.19.72.19s.55-.06.74-.19c.19-.13.28-.28.28-.46,0-.16-.06-.29-.18-.39-.12-.1-.3-.18-.56-.23l-.93-.2c-.52-.11-.91-.29-1.16-.55-.25-.26-.38-.59-.37-.99,0-.34.09-.63.28-.88.19-.25.44-.44.78-.58.33-.14.72-.2,1.15-.2.64,0,1.14.14,1.51.41s.6.64.68,1.1Z"/>
      <path class="cls-5" d="M76.01,114.55c-.03-.31-.17-.55-.42-.72s-.56-.26-.95-.26c-.28,0-.51.04-.71.12s-.35.2-.45.34c-.1.14-.16.3-.16.49,0,.15.04.28.11.39.07.11.17.21.29.28.12.08.25.14.4.19.15.05.29.1.44.13l.68.17c.28.06.54.15.79.26s.48.25.69.41c.2.17.36.37.48.6.12.23.18.51.18.82,0,.43-.11.8-.33,1.12s-.53.58-.94.76c-.41.18-.91.27-1.49.27s-1.06-.09-1.47-.26c-.42-.18-.74-.43-.97-.77-.23-.34-.36-.75-.38-1.23h1.3c.02.25.1.46.23.63.14.17.32.29.54.38.22.08.47.12.74.12s.54-.04.75-.13c.22-.09.39-.21.51-.36.12-.15.19-.34.19-.54,0-.19-.06-.35-.17-.47-.11-.12-.26-.23-.46-.31s-.42-.16-.68-.22l-.83-.21c-.6-.15-1.07-.39-1.42-.7s-.52-.73-.52-1.25c0-.43.12-.8.35-1.13.23-.32.55-.57.95-.75.4-.18.86-.27,1.37-.27s.97.09,1.36.27c.39.18.7.43.92.74.22.32.34.68.34,1.09h-1.27Z"/>
      <path class="cls-5" d="M80.91,119.93c-.55,0-1.02-.11-1.42-.34s-.7-.55-.92-.97c-.21-.42-.32-.92-.32-1.49s.11-1.05.32-1.48c.21-.43.51-.76.9-.99.39-.24.84-.36,1.36-.36.34,0,.65.05.95.16.3.11.56.27.79.5s.41.51.54.86c.13.35.2.76.2,1.24v.39h-4.47v-.87h3.24c0-.25-.06-.47-.16-.66-.1-.19-.25-.35-.43-.46-.19-.11-.4-.17-.65-.17-.26,0-.49.06-.69.19s-.35.29-.46.5c-.11.2-.17.43-.17.67v.76c0,.32.06.59.17.82s.28.4.49.52.45.18.73.18c.19,0,.36-.03.51-.08.15-.05.28-.13.39-.24s.2-.23.25-.39l1.2.13c-.08.32-.22.59-.43.83-.21.24-.48.42-.81.55-.33.13-.71.19-1.13.19Z"/>
      <path class="cls-5" d="M84.42,119.83v-5.46h1.25v.91h.06c.1-.32.27-.56.51-.73.24-.17.52-.26.83-.26.07,0,.15,0,.24,0,.09,0,.16.01.22.03v1.18c-.05-.02-.14-.04-.26-.05-.12-.01-.23-.02-.34-.02-.23,0-.44.05-.63.15-.19.1-.33.24-.44.42-.11.18-.16.38-.16.61v3.21h-1.29Z"/>
      <path class="cls-5" d="M89.04,113.6c-.2,0-.38-.07-.53-.21-.15-.13-.22-.3-.22-.49s.07-.36.22-.5c.15-.14.32-.21.53-.21s.38.07.53.21c.15.14.22.3.22.5s-.07.36-.22.49c-.15.14-.32.21-.53.21ZM88.39,119.83v-5.46h1.29v5.46h-1.29Z"/>
      <path class="cls-5" d="M93.41,119.93c-.55,0-1.02-.11-1.42-.34s-.7-.55-.91-.97-.32-.92-.32-1.49.11-1.05.32-1.48c.21-.43.51-.76.9-.99.39-.24.84-.36,1.36-.36.34,0,.65.05.95.16.3.11.56.27.8.5.23.22.41.51.54.86.13.35.2.76.2,1.24v.39h-4.47v-.87h3.24c0-.25-.06-.47-.16-.66-.1-.19-.25-.35-.44-.46s-.4-.17-.65-.17c-.26,0-.49.06-.69.19-.2.13-.35.29-.46.5-.11.2-.17.43-.17.67v.76c0,.32.06.59.17.82.12.23.28.4.49.52.21.12.45.18.73.18.19,0,.36-.03.51-.08.15-.05.28-.13.39-.24s.2-.23.25-.39l1.2.13c-.08.32-.22.59-.43.83s-.48.42-.81.55-.71.19-1.13.19Z"/>
      <path class="cls-5" d="M101.23,115.81l-1.17.13c-.03-.12-.09-.23-.17-.33s-.19-.19-.33-.25-.31-.1-.5-.1c-.27,0-.49.06-.67.17-.18.12-.27.27-.27.45,0,.16.06.29.18.39s.32.18.59.25l.93.2c.52.11.9.29,1.15.53.25.24.38.56.38.95,0,.34-.1.64-.3.91-.2.26-.47.47-.82.61-.35.15-.75.22-1.21.22-.67,0-1.21-.14-1.61-.42-.41-.28-.65-.67-.73-1.17l1.25-.12c.06.25.18.43.36.56.18.12.42.19.72.19s.55-.06.74-.19c.19-.13.28-.28.28-.46,0-.16-.06-.29-.18-.39-.12-.1-.3-.18-.56-.23l-.93-.2c-.52-.11-.91-.29-1.16-.55-.25-.26-.38-.59-.37-.99,0-.34.09-.63.28-.88.19-.25.45-.44.78-.58.33-.14.72-.2,1.15-.2.64,0,1.14.14,1.51.41.37.27.6.64.68,1.1Z"/>
    </g>
    <g>
      <path class="cls-4" d="M56.5,42.96c-1.79,0-3.2,1.2-3.2,2.72s1.41,2.7,3.2,2.7c1.79,0,3.2-1.18,3.2-2.7,0-1.52-1.41-2.72-3.2-2.72M56.5,50.21c-2.82,0-5.03-1.98-5.03-4.53,0-2.55,2.21-4.55,5.03-4.55,2.82,0,5.03,2,5.03,4.55,0,2.55-2.21,4.53-5.03,4.53"/>
      <path class="cls-4" d="M74.48,50.21c-1.01,0-1.83-.84-1.83-1.87v-3.77c0-.9-.78-1.62-1.75-1.62-.95,0-1.73.72-1.73,1.62v5.64c-1.01,0-1.83-.82-1.83-1.83v-3.81c0-.9-.78-1.62-1.75-1.62s-1.74.72-1.74,1.62v3.79c0,1.01-.82,1.85-1.83,1.85v-5.64c0-1.9,1.6-3.45,3.56-3.45,1.06,0,2.02.44,2.66,1.14.65-.71,1.6-1.14,2.65-1.14,1.98,0,3.58,1.54,3.58,3.45v5.64Z"/>
      <path class="cls-4" d="M80.42,50.2c-.48,0-.93-.04-1.35-.13-.95-.27-1.51-1.26-1.26-2.21.04-.11.07-.23.11-.32l.02-.02c.51.57,1.35.86,2.48.86,1.68,0,2.99-1.18,2.99-2.67s-1.31-2.76-2.99-2.76c-1.58,0-3.16.88-3.16,2.8v5.92c0,.99-.84,1.79-1.83,1.79v-7.71c0-2.67,2.1-4.63,4.99-4.63,1.28,0,2.47.48,3.39,1.31.92.86,1.43,2.02,1.43,3.28,0,2.52-2.11,4.49-4.82,4.49"/>
      <path class="cls-4" d="M93.46,39.4h-3.91s0,10.82,0,10.82h-.08c-.97,0-1.75-.84-1.75-1.83v-8.99s-3.91,0-3.91,0c-.99,0-1.79-.82-1.79-1.81h13.26c0,.99-.8,1.81-1.81,1.81"/>
      <path class="cls-4" d="M105.06,39.47l-2.6,5.71h4.9s-2.62-5.73-2.62-5.73l.31.02ZM109.11,49.07l-.97-2.09h-6.49s-.96,2.15-.96,2.15c-.45.86-1.66,1.12-2.58,1.12l5.29-11.61c.3-.67.83-1.05,1.45-1.05.62,0,1.16.38,1.47,1.05l5.23,11.47c-.98.09-2.06-.2-2.44-1.04"/>
      <path class="cls-4" d="M49.42,41c-.99-1.05-2.44-1.73-4.04-1.73-2.84,0-5.14,2.06-5.14,4.59,0,2.53,2.31,4.61,5.14,4.61,1.35,0,2.63-.51,3.6-1.33.67-.55,1.66-.51,2.31.04-.5.76-1.16,1.43-1.98,1.94-1.16.74-2.52,1.12-3.92,1.12-3.83,0-6.93-2.86-6.93-6.38,0-3.52,3.1-6.38,6.93-6.38,2.72,0,5.2,1.49,6.3,3.77-.7.46-1.68.4-2.27-.25"/>
      <path class="cls-4" d="M95.85,37.59v10.85c0,.97.84,1.77,1.83,1.77v-10.85c0-.97-.84-1.77-1.83-1.77"/>
    </g>
    <g>
      <path class="cls-6" d="M41.36,79.49h-3.84l-6.22-10.8h-.08c.03.45.05.91.07,1.36s.04.91.06,1.36c.02.45.04.91.05,1.36v6.72h-2.7v-14.28h3.82l6.2,10.7h.06c-.01-.44-.03-.88-.04-1.32-.01-.44-.03-.88-.05-1.31-.02-.43-.04-.87-.05-1.31v-6.76h2.72v14.28Z"/>
      <path class="cls-6" d="M48.78,68.37c1.01,0,1.88.19,2.61.58s1.29.95,1.69,1.68c.4.73.6,1.63.6,2.7v1.44h-7.04c.03.84.28,1.5.75,1.98.47.48,1.13.72,1.97.72.71,0,1.35-.07,1.92-.21.57-.14,1.17-.36,1.78-.65v2.3c-.53.27-1.1.46-1.69.59-.59.13-1.31.19-2.15.19-1.09,0-2.06-.2-2.9-.61-.84-.41-1.5-1.02-1.98-1.85-.48-.83-.72-1.87-.72-3.12s.22-2.34.65-3.19,1.04-1.48,1.81-1.91c.77-.43,1.67-.64,2.7-.64ZM48.8,70.49c-.57,0-1.05.19-1.43.56s-.6.95-.67,1.74h4.18c0-.44-.08-.83-.23-1.18-.15-.35-.38-.62-.69-.82-.31-.2-.69-.3-1.16-.3Z"/>
      <path class="cls-6" d="M60.26,77.31c.33,0,.65-.03.96-.1.31-.07.61-.15.92-.24v2.22c-.32.13-.72.25-1.19.35-.47.1-.99.15-1.55.15-.65,0-1.24-.11-1.75-.32-.51-.21-.92-.58-1.22-1.11-.3-.53-.45-1.26-.45-2.19v-5.26h-1.42v-1.26l1.64-1,.86-2.3h1.9v2.32h3.06v2.24h-3.06v5.26c0,.41.12.72.36.93.24.21.55.31.94.31Z"/>
      <path class="cls-6" d="M72.58,75.67c-.05-.23-.13-.56-.23-1.01-.1-.45-.21-.93-.33-1.44-.12-.51-.23-.99-.34-1.42-.11-.43-.18-.75-.22-.95h-.08c-.04.2-.11.52-.21.95s-.21.91-.33,1.42c-.12.51-.23,1-.34,1.45-.11.45-.19.8-.24,1.04l-.88,3.78h-3.2l-3.1-10.92h2.96l1.26,4.84c.09.33.18.73.25,1.2.07.47.14.92.21,1.35.07.43.11.78.14,1.03h.08c.01-.19.04-.44.08-.75.04-.31.09-.64.15-.97s.11-.64.16-.91.08-.46.11-.55l1.34-5.24h3.28l1.28,5.24c.05.19.12.49.19.9.07.41.14.83.2,1.26s.09.77.09,1.02h.08c.03-.23.07-.56.14-.99.07-.43.14-.89.23-1.37.09-.48.18-.89.27-1.22l1.3-4.84h2.92l-3.14,10.92h-3.24l-.84-3.82Z"/>
      <path class="cls-6" d="M91.04,74.01c0,.91-.12,1.71-.37,2.42-.25.71-.6,1.3-1.06,1.79-.46.49-1.02.85-1.67,1.1-.65.25-1.39.37-2.22.37-.76,0-1.46-.12-2.11-.37-.65-.25-1.2-.61-1.67-1.1s-.83-1.08-1.09-1.79-.39-1.51-.39-2.42c0-1.21.21-2.24.64-3.07.43-.83,1.04-1.47,1.84-1.91.8-.44,1.75-.66,2.84-.66,1.03,0,1.93.22,2.72.66.79.44,1.41,1.08,1.86,1.91s.68,1.86.68,3.07ZM83.5,74.01c0,.72.08,1.32.23,1.81.15.49.4.85.73,1.1.33.25.77.37,1.3.37s.96-.12,1.29-.37c.33-.25.57-.61.72-1.1.15-.49.23-1.09.23-1.81s-.08-1.32-.23-1.8c-.15-.48-.4-.84-.73-1.08-.33-.24-.77-.36-1.3-.36-.79,0-1.36.27-1.71.81s-.53,1.35-.53,2.43Z"/>
      <path class="cls-6" d="M99.16,68.37c.15,0,.32,0,.52.02.2.01.36.03.48.06l-.22,2.8c-.09-.03-.23-.05-.41-.07-.18-.02-.34-.03-.47-.03-.39,0-.76.05-1.12.15-.36.1-.68.26-.97.47-.29.21-.51.5-.68.85-.17.35-.25.79-.25,1.31v5.56h-2.98v-10.92h2.26l.44,1.84h.14c.21-.37.48-.71.8-1.02.32-.31.69-.55,1.11-.74s.87-.28,1.35-.28Z"/>
      <path class="cls-6" d="M104.68,71.09c0,.41-.02.82-.05,1.23-.03.41-.07.82-.11,1.23h.04c.13-.19.27-.37.41-.56.14-.19.28-.37.43-.56s.3-.37.46-.54l3.06-3.32h3.36l-4.34,4.74,4.6,6.18h-3.44l-3.14-4.42-1.28,1.02v3.4h-2.98v-15.2h2.98v6.8Z"/>
      <path class="cls-6" d="M118.88,71.37h3.78v2.14h-3.78v3.76h-2.14v-3.76h-3.78v-2.14h3.78v-3.8h2.14v3.8Z"/>
    </g>
    <g>
      <rect class="cls-2" x="46.45" y="90.57" width="57.09" height="13.5" rx="6.75" ry="6.75"/>
      <g>
        <path class="cls-4" d="M57.45,96.25h-1.2c-.03-.2-.1-.37-.19-.52s-.21-.28-.34-.39c-.14-.11-.29-.19-.47-.24-.17-.05-.36-.08-.56-.08-.36,0-.67.09-.95.27-.27.18-.49.44-.65.78-.16.34-.23.76-.23,1.25s.08.92.24,1.26.37.6.65.77.59.26.94.26c.2,0,.38-.03.55-.08.17-.05.33-.13.46-.23s.25-.23.35-.38c.09-.15.16-.32.2-.51h1.2c-.04.32-.14.61-.29.88-.15.27-.34.51-.58.72-.24.21-.52.37-.84.49-.32.12-.67.17-1.06.17-.58,0-1.09-.13-1.54-.4s-.81-.65-1.07-1.15c-.26-.5-.39-1.11-.39-1.81s.13-1.31.39-1.81c.26-.5.62-.89,1.07-1.15.45-.27.96-.4,1.53-.4.37,0,.7.05,1.02.15.31.1.59.25.84.45.25.2.45.44.61.72.16.28.26.61.31.97Z"/>
        <path class="cls-4" d="M58.72,100.59v-6.54h4.26v.99h-3.07v1.78h2.85v.99h-2.85v1.79h3.1v.99h-4.28Z"/>
        <path class="cls-4" d="M64.37,100.59v-6.54h2.46c.5,0,.92.09,1.27.26.34.17.6.42.78.73s.26.68.26,1.1-.09.78-.27,1.09c-.18.31-.44.55-.78.71s-.77.25-1.27.25h-1.75v-.98h1.59c.29,0,.53-.04.72-.12s.33-.2.42-.36c.09-.16.14-.35.14-.59s-.05-.43-.14-.6-.23-.29-.42-.38-.43-.13-.73-.13h-1.09v5.55h-1.19ZM67.75,97.62l1.62,2.96h-1.32l-1.59-2.96h1.29Z"/>
        <path class="cls-4" d="M70.11,95.04v-.99h5.22v.99h-2.02v5.55h-1.18v-5.55h-2.02Z"/>
        <path class="cls-4" d="M77.71,94.04v6.54h-1.19v-6.54h1.19Z"/>
        <path class="cls-4" d="M79.17,100.59v-6.54h4.19v.99h-3.01v1.78h2.72v.99h-2.72v2.78h-1.19Z"/>
        <path class="cls-4" d="M85.81,94.04v6.54h-1.19v-6.54h1.19Z"/>
        <path class="cls-4" d="M87.28,100.59v-6.54h4.26v.99h-3.07v1.78h2.85v.99h-2.85v1.79h3.1v.99h-4.28Z"/>
        <path class="cls-4" d="M95.14,100.59h-2.22v-6.54h2.26c.65,0,1.21.13,1.68.39.47.26.83.64,1.08,1.12.25.49.38,1.07.38,1.75s-.12,1.27-.38,1.76c-.25.49-.62.87-1.09,1.13-.47.26-1.04.39-1.71.39ZM94.11,99.56h.97c.46,0,.84-.08,1.14-.25.3-.17.53-.42.69-.75.15-.33.23-.75.23-1.25s-.08-.92-.23-1.25c-.15-.33-.38-.58-.68-.74-.3-.17-.67-.25-1.11-.25h-1.01v4.49Z"/>
      </g>
    </g>
  </g>
</svg>